<?xml version="1.0" encoding="UTF-8"?>
<!DOCTYPE svg PUBLIC "-//W3C//DTD SVG 1.1//EN" "http://www.w3.org/Graphics/SVG/1.1/DTD/svg11.dtd">
<!-- Creator: CorelDRAW 2018 (64 Bit Versión de evaluación) -->
<svg xmlns="http://www.w3.org/2000/svg" xml:space="preserve" width="350mm" height="350mm" version="1.1" style="shape-rendering:geometricPrecision; text-rendering:geometricPrecision; image-rendering:optimizeQuality; fill-rule:evenodd; clip-rule:evenodd"
viewBox="0 0 35000 35000"
 xmlns:xlink="http://www.w3.org/1999/xlink">
 <defs>
  <style type="text/css">
   <![CDATA[
    .fil0 {fill:none}
    .fil1 {fill:#62BEE9}
    .fil3 {fill:#64BCE4}
    .fil4 {fill:#6BBDE3}
    .fil5 {fill:#73C2E4}
    .fil2 {fill:#76C047}
   ]]>
  </style>
 </defs>
 <g id="Capa_x0020_1">
  <metadata id="CorelCorpID_0Corel-Layer"/>
  <rect class="fil0" width="35000" height="35000"/>
  <g id="_1779694712368">
   <path class="fil1" d="M13504.23 11440.69c21.01,-21.95 62.11,-71.41 88.15,-97.45 24.73,-24.73 62.85,-61 90.19,-87.22l766.39 -799.12 1095.37 1086.44c-649.6,584.51 -553.45,311.88 -1052.78,1123.27l-1073.8 -1123.27c26.78,-35.89 64.9,-80.33 86.48,-102.65zm-5956.66 -2416.7c617.98,-401.88 1214.58,-423.27 1694.94,-953.1 392.03,-432.19 573.91,-1115.08 894.34,-1667.41 1182.03,2351.41 619.09,1349.4 2590.57,2620.51 -288.25,565.91 -954.21,445.59 -1595.63,1092.58 -540.99,545.46 -497.66,947.34 -934.13,1586.9l-348.88 -447.82c-213.68,-391.84 -238.79,-779.59 -682.52,-1198.77 -607.94,-574.1 -1208.81,-367.85 -1618.69,-1032.89zm11298.12 0c122.74,171.1 83.31,270.03 366.55,589.9 171.83,193.79 289.92,283.24 493.38,449.87 1686.38,1380.28 3143.84,1323.18 3809.61,1844.09 -4007.86,152.12 -5590.84,-1179.62 -7270.16,-3758.29 -719.15,-1104.48 -1266.47,-2035.46 -2771.53,-2720.39 -2465.98,-1122.33 -6314.65,-437.59 -7073.6,2808.54 -342.93,1466.75 -349.81,3358.45 -235.06,4941.62 117.9,1628.92 794.84,8506.32 1670.95,9166.15 413.97,-422.34 608.68,-1688.99 981.74,-2271.45 472.55,-737.75 1065.61,-1023.77 1512.13,-1602.7 -108.42,-864.02 -472.37,-1191.89 -70.48,-2153.18 658.89,-1576.85 2566.95,-1371.72 3216.92,-195.45 518.31,937.85 149.71,1550.25 -40.17,2447.75 1212.16,789.45 27.71,981.93 168.12,2318.87 794.47,46.87 616.31,-440 819.2,-1192.82 680.66,-2524.74 2027.09,-2926.81 2546.13,-3587.01 -257.19,-1071.38 -732.72,-1410.96 -101.54,-2625.91 877.97,-1689.73 3114.09,-1742.92 3912.65,68.44 500.82,1136.47 149.15,1627.43 -155.29,2557.47 347.96,489.67 665.04,507.89 1090.91,923.91 312.43,305.36 574.28,639 872.39,1158.41 242.69,422.71 454.7,956.27 590.83,1464.15 214.98,801.91 44.26,1061.53 716.92,1232.62 195.08,-501.94 -46.68,-856.4 -164.4,-1346.8 -172.21,-717.85 -83.31,-668.57 407.46,-958.87 -109.91,-818.65 -480.92,-1606.79 -32.91,-2426.55 733.65,-1342.15 2593.36,-1288.04 3229.57,122.37 498.78,1105.41 24.73,1261.07 -83.5,2192.6 487.43,609.24 1063.75,813.81 1568.48,1670.58 875.18,1485.72 248.46,1746.08 1058.55,2165.82 258.5,-206.8 42.21,75.13 321.73,-357.07l456.56 -1129.96c1216.62,-3196.1 3230.5,-8942.05 517.55,-11678.06 -4741.14,-4781.13 -11732.73,-1254.74 -12329.69,-118.65z"/>
   <path class="fil2" d="M4376.76 25216.13c78.48,5.76 465.12,-29.76 562.57,-42.4l3211.35 -428.48c914.04,1269.62 1667.23,6782.74 4176.72,6108.03 1142.98,-307.22 1762.08,-1937.07 2159.5,-3056.62 503.05,-1417.28 695.53,-2968.47 2354.2,-2855.77 1274.09,1322.81 1490.75,3909.3 1956.05,5858.09 440.75,1846.88 1368.75,5048.93 3657.86,3086.01 2006.63,-1720.61 5450.07,-6821.8 6417.31,-9229.01l4803.44 574.65c-1082.35,-836.12 -5041.3,-1867.52 -6771.02,-2209.33 -2591.69,-512.35 -5066.78,-835.39 -8046.97,-840.59 -3836.21,-6.88 -12049.99,1194.3 -14988.15,2903.56l507.14 131.86z"/>
   <path class="fil3" d="M6103.88 5472.69c383.47,-431.27 475.53,-1053.9 955.15,-1477.35 478.13,-421.97 919.62,-343.49 1355.17,-797.26 -446.89,-349.63 -1052.97,-463.26 -1453,-855.84 -512.9,-503.43 -437.4,-1033.07 -857.32,-1478.84 -614.45,677.67 -71.6,1097.97 -1535.57,1885 -437.77,235.25 -422.34,188.2 -729.19,449.68 407.46,510.67 811.58,320.8 1367.82,891.73 479.8,492.64 461.77,979.69 896.94,1382.88z"/>
   <path class="fil4" d="M1691.34 7764.6c-323.4,241.95 -138.92,62.86 -367.1,363.94 1055.2,393.52 921.3,550.48 1473.07,1351.46 727.89,-825.9 283.79,-941.2 1575.55,-1408.74 -293.09,-274.49 -711.53,-440.38 -925.95,-638.99 -558.84,-517.75 -19.71,-418.25 -649.6,-843.38l-359.48 508.07c-444.84,656.11 -309.27,340.33 -746.49,667.64z"/>
   <path class="fil5" d="M10254.01 1591.47c428.29,397.24 188.2,-51.51 1017.07,880.39 24.92,28.08 69.93,73.09 90.76,96.15 21.2,23.24 61.93,65.27 95.4,95.21l1111.55 -1039.57c-119.95,-135.76 -55.6,-72.53 -249.94,-227.63 -100.24,-79.78 -199.37,-119.77 -352.05,-279.33l-424.01 -533.93c-16.74,-18.59 -55.98,-56.16 -85.55,-82.75 -665.03,741.46 -377.52,482.22 -1203.23,1091.46z"/>
  </g>
 </g>
</svg>
